<?xml version="1.0" standalone="no"?>
<!DOCTYPE svg PUBLIC "-//W3C//DTD SVG 20010904//EN"
 "http://www.w3.org/TR/2001/REC-SVG-20010904/DTD/svg10.dtd">
<svg version="1.0" xmlns="http://www.w3.org/2000/svg"
 width="648.000000pt" height="429.000000pt" viewBox="0 0 648.000000 429.000000"
 preserveAspectRatio="xMidYMid meet">

<g transform="translate(0.000000,429.000000) scale(0.100000,-0.100000)"
fill="#35B8BE" stroke="none">
<path d="M0 2145 l0 -2145 3240 0 3240 0 0 2145 0 2145 -3240 0 -3240 0 0
-2145z m2817 433 l23 -21 0 -391 c0 -386 0 -390 -22 -413 l-21 -23 -656 0
-655 0 -23 22 -23 21 0 387 c0 377 1 388 21 414 l20 26 657 0 656 0 23 -22z
m500 -129 c15 -5 40 -22 56 -37 26 -25 27 -25 27 -4 0 21 34 52 57 52 7 0 21
-10 33 -22 18 -20 20 -35 20 -184 0 -251 -21 -318 -117 -365 -66 -33 -195 -33
-268 0 -52 23 -65 35 -65 63 0 35 36 41 105 17 76 -26 153 -23 186 7 27 23 49
74 49 111 l0 27 -27 -26 c-75 -71 -207 -64 -280 14 -51 55 -68 162 -38 235 18
43 64 89 108 108 38 17 115 19 154 4z m570 -1 c15 -6 40 -23 56 -37 27 -24 27
-24 27 -3 0 26 42 56 68 48 39 -13 44 -44 41 -242 -4 -177 -6 -192 -29 -239
-30 -60 -72 -90 -148 -106 -71 -14 -152 -5 -219 26 -43 19 -53 29 -53 48 0 47
23 53 101 27 81 -26 157 -24 190 6 26 23 49 74 49 109 l0 26 -40 -33 c-34 -27
-51 -33 -104 -36 -128 -8 -216 78 -216 210 1 90 50 165 130 197 35 14 114 13
147 -1z m401 -4 c12 -8 22 -25 22 -36 0 -21 1 -21 28 4 51 50 129 62 200 33
133 -56 174 -246 81 -377 -26 -36 -110 -78 -157 -78 -40 0 -99 24 -129 52
l-23 21 0 -79 c0 -87 -15 -124 -52 -124 -12 0 -30 7 -40 17 -17 15 -18 37 -18
280 0 250 1 264 20 283 24 24 38 25 68 4z m570 0 c13 -9 22 -26 22 -40 l0 -26
25 30 c55 66 140 66 133 -1 -2 -26 -10 -35 -44 -52 -94 -45 -114 -84 -114
-222 0 -103 -3 -113 -35 -131 -20 -11 -52 -1 -67 22 -4 6 -8 100 -8 208 0 192
1 197 22 212 12 9 27 16 33 16 6 0 21 -7 33 -16z"/>
<path d="M2111 2184 c-39 -144 -71 -267 -71 -272 0 -9 49 -27 56 -20 9 9 144
529 140 537 -3 5 -16 11 -29 13 -24 5 -26 -2 -96 -258z"/>
<path d="M2316 2386 c-9 -14 -16 -27 -16 -30 0 -2 52 -46 116 -96 94 -75 114
-95 103 -104 -8 -7 -59 -48 -114 -91 -55 -43 -103 -81 -108 -85 -4 -3 3 -16
16 -29 l24 -22 114 91 c162 128 185 147 179 152 -3 3 -63 51 -135 108 -71 57
-137 109 -146 117 -14 12 -18 10 -33 -11z"/>
<path d="M1795 2289 c-77 -61 -141 -114 -143 -119 -2 -4 63 -60 144 -124 139
-110 148 -115 166 -99 10 9 18 21 18 27 0 6 -43 45 -96 86 -53 41 -105 82
-116 91 -20 15 -17 19 90 103 61 48 114 91 117 96 8 13 -13 50 -28 50 -7 0
-75 -50 -152 -111z"/>
<path d="M3203 2351 c-41 -26 -53 -49 -53 -103 0 -33 7 -52 28 -77 54 -65 171
-51 206 24 25 53 20 91 -17 131 -28 31 -41 37 -83 41 -37 3 -57 -1 -81 -16z"/>
<path d="M3779 2356 c-37 -21 -59 -59 -59 -101 0 -74 51 -125 125 -125 110 0
164 126 86 203 -35 36 -110 47 -152 23z"/>
<path d="M4383 2355 c-43 -18 -73 -69 -73 -123 0 -92 46 -142 133 -142 125 0
161 204 46 262 -41 21 -63 22 -106 3z"/>
</g>
</svg>
